<svg xmlns="http://www.w3.org/2000/svg" viewBox="0 0 470.7 109.71"><defs><style>.cls-1{fill:#ed3035;}.cls-1,.cls-2,.cls-3{fill-rule:evenodd;}.cls-2{fill:#faaf43;}.cls-3{fill:#00a79c;}.cls-4{fill:#282560;}</style></defs><g id="Layer_2" data-name="Layer 2"><g id="Layer_1-2" data-name="Layer 1"><path class="cls-1" d="M80.54,43.19a47.85,47.85,0,0,1,7-25.65c-.72.27-9.18,3.3-16.9-2.1C62.78,9.94,62.85.71,62.87,0c0,.69.1,10-7.79,15.47-7.71,5.37-16.15,2.36-16.88,2.08a47.91,47.91,0,0,1,4.86,10.71,48.2,48.2,0,0,1,2.16,13.62,72.88,72.88,0,0,1-.87,9.49,47.57,47.57,0,0,1,7.25-3.82,46.79,46.79,0,0,1,7.07-2.31l.33-12a35.71,35.71,0,0,1,3.61-14.19.29.29,0,0,1,.52,0,36,36,0,0,1,3.61,14.19l.41,12a58,58,0,0,1,14.27,6.52A48.39,48.39,0,0,1,80.54,43.19Z"/><path class="cls-2" d="M125.76,69.77h0a18.7,18.7,0,0,1-7.09-12.7,18.38,18.38,0,0,1,6.15-15.53c-.72.65-7.39,6.46-16.32,4.59a18.79,18.79,0,0,1-11-7.23,33.48,33.48,0,0,0-5.92,5.74,30.49,30.49,0,0,0-5.4,10.83A20.31,20.31,0,0,1,89.9,58.3c2.55,2.32.59,7.34.59,7.34L68.16,57.36a48,48,0,0,0,17,49c1.27.91,3.21,2.15,5.29,3.36A48,48,0,0,1,125.76,69.77Z"/><path class="cls-3" d="M0,69.77H0a18.7,18.7,0,0,0,7.08-12.7A18.38,18.38,0,0,0,.94,41.53c.72.65,7.39,6.46,16.31,4.59a18.71,18.71,0,0,0,11-7.23,33.11,33.11,0,0,1,5.92,5.74,30.49,30.49,0,0,1,5.4,10.83,20.61,20.61,0,0,0-3.73,2.84c-2.55,2.32-.59,7.34-.59,7.34l22.33-8.28a48.09,48.09,0,0,1-17,49c-1.27.91-3.22,2.15-5.3,3.36A48,48,0,0,0,0,69.77Z"/><path class="cls-4" d="M150.7,89.84l.09-12.46.69,0a27,27,0,0,0,3,7.49Q157.79,90,162.76,90a7.67,7.67,0,0,0,5.73-2.33,8,8,0,0,0,2.26-5.88,10.52,10.52,0,0,0-.49-3.13,9.29,9.29,0,0,0-1.35-2.75,10.44,10.44,0,0,0-2.45-2.26,46.59,46.59,0,0,0-4.84-2.74,49.61,49.61,0,0,1-4.39-2.44,12.9,12.9,0,0,1-2.46-2,9.87,9.87,0,0,1-2.59-6.91,11.89,11.89,0,0,1,1-4.83,11.64,11.64,0,0,1,2.82-4,10.76,10.76,0,0,1,7.57-2.95,11.38,11.38,0,0,1,2.62.28,23.15,23.15,0,0,1,3.23,1.14c1,.4,1.68.65,2,.76a3.36,3.36,0,0,0,1,.17c.71,0,1.18-.51,1.42-1.54h.69l.21,12h-.69c-.54-1.91-1-3.37-1.4-4.38a16.11,16.11,0,0,0-1.4-2.82A10.93,10.93,0,0,0,168,49.83a7.48,7.48,0,0,0-4.09-1.13A6.63,6.63,0,0,0,158.6,51a7,7,0,0,0-1.28,2.2,7.35,7.35,0,0,0-.47,2.54q0,5,6.48,8.12l4.24,2A19.22,19.22,0,0,1,174.65,71a11.51,11.51,0,0,1,2.47,7.31A13,13,0,0,1,176,83.64a11.79,11.79,0,0,1-4.7,5.43A13.91,13.91,0,0,1,163.91,91a18.69,18.69,0,0,1-7.48-1.54c-1.25-.54-2-.85-2.23-.93a2.62,2.62,0,0,0-.82-.12,2,2,0,0,0-2,1.45Z"/><path class="cls-4" d="M196.56,69.66V80.49a22,22,0,0,0,.35,4.57,5.11,5.11,0,0,0,1.28,2.45,5.19,5.19,0,0,0,1.89,1.26,9.5,9.5,0,0,0,2.82.49V90H183.63v-.7a9.63,9.63,0,0,0,2.82-.49,5.15,5.15,0,0,0,1.88-1.26,4.78,4.78,0,0,0,1.3-2.44,22.94,22.94,0,0,0,.33-4.58V58.26a25.35,25.35,0,0,0-.23-4A6.16,6.16,0,0,0,189,52a5,5,0,0,0-2-1.79,8.27,8.27,0,0,0-3.14-.71h-.21v-.7h18.18a36.12,36.12,0,0,1,7,.49A10,10,0,0,1,213,51.21a10.36,10.36,0,0,1,4.28,8.68q0,5.52-4.34,8.08a12.79,12.79,0,0,1-5.49,1.6c-.68.06-2.33.09-4.94.09Zm0-1h3a18.65,18.65,0,0,0,4.6-.44A6.88,6.88,0,0,0,207,66.65,9.2,9.2,0,0,0,210,59.5a11.59,11.59,0,0,0-.86-4.54,8.33,8.33,0,0,0-2.45-3.36,8,8,0,0,0-4.38-1.81c-.46,0-1.51-.06-3.16-.06h-2.54Z"/><path class="cls-4" d="M223.28,89.84l.09-12.46.7,0a26.69,26.69,0,0,0,3,7.49Q230.37,90,235.34,90a7.63,7.63,0,0,0,5.73-2.33,8.05,8.05,0,0,0,2.27-5.88,10.54,10.54,0,0,0-.5-3.13,9.27,9.27,0,0,0-1.34-2.75A10.7,10.7,0,0,0,239,73.61a46.59,46.59,0,0,0-4.84-2.74q-2.87-1.45-4.39-2.44a13.22,13.22,0,0,1-2.46-2,9.87,9.87,0,0,1-2.59-6.91,12.06,12.06,0,0,1,1-4.83,11.64,11.64,0,0,1,2.82-4,10.76,10.76,0,0,1,7.57-2.95,11.38,11.38,0,0,1,2.62.28A22.71,22.71,0,0,1,242,49.16c1,.4,1.69.65,2.05.76a3.36,3.36,0,0,0,1,.17c.71,0,1.18-.51,1.42-1.54h.69l.22,12h-.7c-.54-1.91-1-3.37-1.4-4.38a16.11,16.11,0,0,0-1.4-2.82,10.82,10.82,0,0,0-3.25-3.49,7.48,7.48,0,0,0-4.09-1.13,6.63,6.63,0,0,0-5.33,2.3,7,7,0,0,0-1.28,2.2,7.35,7.35,0,0,0-.47,2.54q0,5,6.48,8.12l4.24,2A19.22,19.22,0,0,1,247.23,71a11.46,11.46,0,0,1,2.47,7.31,12.85,12.85,0,0,1-1.12,5.29,11.74,11.74,0,0,1-4.7,5.43A13.88,13.88,0,0,1,236.49,91,18.73,18.73,0,0,1,229,89.44c-1.25-.54-2-.85-2.23-.93a2.57,2.57,0,0,0-.82-.12,2,2,0,0,0-2,1.45Z"/><path class="cls-4" d="M311.21,48.58l.36,13.48h-.69l-.51-1.33q-1.06-2.88-1.72-4.31a15.11,15.11,0,0,0-3.41-4.64,10.93,10.93,0,0,0-3.5-2.32,10.7,10.7,0,0,0-4.07-.73,11.47,11.47,0,0,0-5.91,1.48,15.07,15.07,0,0,0-4.1,3.72,21.76,21.76,0,0,0-3.11,5.54,27.13,27.13,0,0,0-1.71,10A28.89,28.89,0,0,0,284,78a17.16,17.16,0,0,0,3.44,6.37,13.91,13.91,0,0,0,11,4.76,15.28,15.28,0,0,0,6.18-1.19,9.66,9.66,0,0,0,4.25-3.36,17.1,17.1,0,0,0,2.53-6.76l.7.12a16,16,0,0,1-2.6,7.57,12.06,12.06,0,0,1-5.32,4.1A20.14,20.14,0,0,1,296.38,91a25.75,25.75,0,0,1-8-1.23,17.5,17.5,0,0,1-9.46-7.2,22,22,0,0,1-3.41-12.41,25.56,25.56,0,0,1,2-10.17,18.67,18.67,0,0,1,5.55-7.5A21.49,21.49,0,0,1,289.64,49a22.76,22.76,0,0,1,15.36.11l2.47.81a3.76,3.76,0,0,0,1.27.27,1.51,1.51,0,0,0,1.24-.63,5.89,5.89,0,0,0,.51-1Z"/><path class="cls-4" d="M343.09,87l.51.3c-.73,2.11-2.38,3.17-5,3.17a5.76,5.76,0,0,1-3.56-1.06A7.73,7.73,0,0,1,333.13,87a19.81,19.81,0,0,1-3.05,2.38,9.21,9.21,0,0,1-4.56,1.09,8,8,0,0,1-5.27-1.6,5.27,5.27,0,0,1-1.95-4.31,5.83,5.83,0,0,1,1.6-4.19A7,7,0,0,1,322,78.9a20.83,20.83,0,0,1,3.4-1.13c1.75-.44,3-.81,3.88-1.11a8.26,8.26,0,0,0,2.1-1.09,3.58,3.58,0,0,0,1.32-1.63,7.4,7.4,0,0,0,.36-2.59q0-3.52-1.32-5.16a4.38,4.38,0,0,0-1.56-1.2,4.54,4.54,0,0,0-2-.45,3.91,3.91,0,0,0-2.2.63,3.79,3.79,0,0,0-1.45,1.75l-.75,1.75a2.19,2.19,0,0,1-2.18,1.41,2.35,2.35,0,0,1-1.71-.67,2.29,2.29,0,0,1-.7-1.71c0-1,.73-1.89,2.18-2.59a13.07,13.07,0,0,1,2.91-.89,17.45,17.45,0,0,1,3.4-.35,16.9,16.9,0,0,1,3.9.48A13.87,13.87,0,0,1,335,65.59a4.8,4.8,0,0,1,2.45,2.9,13.28,13.28,0,0,1,.24,3V82.69a20.14,20.14,0,0,0,.24,3.86,2.39,2.39,0,0,0,2.47,2.14,2.75,2.75,0,0,0,1.46-.33A5.26,5.26,0,0,0,343.09,87Zm-10-11.88a19.64,19.64,0,0,1-3.57,2.38,32.12,32.12,0,0,0-3,1.78A8,8,0,0,0,325,80.76a6.31,6.31,0,0,0-1.42,4.07,4.93,4.93,0,0,0,1.1,3.29,3.49,3.49,0,0,0,2.78,1.29,4.7,4.7,0,0,0,2.78-.92,5.67,5.67,0,0,0,2-2.45,14.49,14.49,0,0,0,.93-5.85Z"/><path class="cls-4" d="M354.69,63.87a14.22,14.22,0,0,1,.43,3.28v.48A12.12,12.12,0,0,1,364,63.87a9.86,9.86,0,0,1,6.21,1.81,6,6,0,0,1,2.33,5.06V83.51a13.41,13.41,0,0,0,.24,3,3.14,3.14,0,0,0,.93,1.58,6.27,6.27,0,0,0,3.11,1.23V90H363.5v-.64a7.79,7.79,0,0,0,2.59-.67,3.07,3.07,0,0,0,1.27-1.49,6.62,6.62,0,0,0,.47-2.1c.09-.93.13-2.27.13-4V74.66a37,37,0,0,0-.22-4.82,5.88,5.88,0,0,0-.86-2.47,4.46,4.46,0,0,0-2-1.64,6.67,6.67,0,0,0-2.85-.59,7.53,7.53,0,0,0-3.15.66,5.66,5.66,0,0,0-2.3,1.81,6.48,6.48,0,0,0-1.19,2.72,31.2,31.2,0,0,0-.28,5v5.9l0,2.23a13.41,13.41,0,0,0,.24,3,3.14,3.14,0,0,0,.93,1.58,6.27,6.27,0,0,0,3.11,1.23V90H346.1v-.64a7.79,7.79,0,0,0,2.59-.67A3.07,3.07,0,0,0,350,87.16a6.47,6.47,0,0,0,.47-2.08c.09-.93.13-2.28.13-4V73.63a42,42,0,0,0-.15-4.33,4.72,4.72,0,0,0-.66-2,3.18,3.18,0,0,0-1.24-1.21,5.37,5.37,0,0,0-2.08-.47V65Z"/><path class="cls-4" d="M406.53,87l.51.3q-1.08,3.17-5,3.17a5.8,5.8,0,0,1-3.57-1.06A8,8,0,0,1,396.57,87a19.81,19.81,0,0,1-3.05,2.38A9.21,9.21,0,0,1,389,90.5a8,8,0,0,1-5.27-1.6,5.27,5.27,0,0,1-1.95-4.31,5.83,5.83,0,0,1,1.6-4.19,7.17,7.17,0,0,1,2.08-1.5,21,21,0,0,1,3.41-1.13q2.63-.66,3.87-1.11a7.94,7.94,0,0,0,2.1-1.09,3.61,3.61,0,0,0,1.33-1.63,7.4,7.4,0,0,0,.36-2.59q0-3.52-1.33-5.16a4.34,4.34,0,0,0-1.55-1.2,4.55,4.55,0,0,0-2-.45A3.86,3.86,0,0,0,388,66.92l-.75,1.75a2.18,2.18,0,0,1-2.17,1.41,2.37,2.37,0,0,1-1.72-.67,2.32,2.32,0,0,1-.69-1.71c0-1,.72-1.89,2.17-2.59a13.34,13.34,0,0,1,2.92-.89,17.35,17.35,0,0,1,3.39-.35,16.9,16.9,0,0,1,3.9.48,13.72,13.72,0,0,1,3.38,1.24,4.77,4.77,0,0,1,2.45,2.9,13.28,13.28,0,0,1,.24,3V82.69a20.14,20.14,0,0,0,.24,3.86,2.41,2.41,0,0,0,2.48,2.14,2.75,2.75,0,0,0,1.46-.33A5.26,5.26,0,0,0,406.53,87Zm-10-11.88A19.72,19.72,0,0,1,393,77.53a35,35,0,0,0-3,1.78,8,8,0,0,0-1.53,1.45A6.3,6.3,0,0,0,387,84.83a4.88,4.88,0,0,0,1.1,3.29,3.48,3.48,0,0,0,2.78,1.29,4.7,4.7,0,0,0,2.78-.92,5.67,5.67,0,0,0,2-2.45,14.49,14.49,0,0,0,.93-5.85Z"/><path class="cls-4" d="M431.44,91a16.3,16.3,0,0,1-.3-3.19,18.53,18.53,0,0,1-4.2,2.08,13.89,13.89,0,0,1-4.24.63,11.75,11.75,0,0,1-7.82-2.74,11.54,11.54,0,0,1-3.2-4.39,14.78,14.78,0,0,1-1.11-5.78,15.48,15.48,0,0,1,1.2-6.13,12.63,12.63,0,0,1,3.38-4.69,12.22,12.22,0,0,1,8.16-2.9,10.18,10.18,0,0,1,3.91.67A16,16,0,0,1,431,67V55.8a7.9,7.9,0,0,0-1.1-4.72,4.24,4.24,0,0,0-3.61-1.44v-.73l9.26-1.17v34.9c0,2.27.36,3.88,1.08,4.85a4.22,4.22,0,0,0,3.59,1.44v.76Zm-.42-14a39,39,0,0,0-.37-6.29,8.38,8.38,0,0,0-1.29-3.42,5.85,5.85,0,0,0-2.17-1.84,6.2,6.2,0,0,0-2.81-.69,6.87,6.87,0,0,0-5.56,3A13.81,13.81,0,0,0,416.61,72a17,17,0,0,0-.79,5.16,17.5,17.5,0,0,0,.75,5.08,14.23,14.23,0,0,0,2,4.27,6.67,6.67,0,0,0,5.53,3.08,6.06,6.06,0,0,0,3-.79,6.24,6.24,0,0,0,2.28-2.17,9.89,9.89,0,0,0,1.26-3.57A38,38,0,0,0,431,76.93Z"/><path class="cls-4" d="M470.19,87l.51.3q-1.08,3.17-5,3.17a5.76,5.76,0,0,1-3.56-1.06A7.87,7.87,0,0,1,460.23,87a19.81,19.81,0,0,1-3.05,2.38,9.21,9.21,0,0,1-4.56,1.09,8,8,0,0,1-5.27-1.6,5.27,5.27,0,0,1-2-4.31A5.83,5.83,0,0,1,447,80.4a7,7,0,0,1,2.08-1.5,20.83,20.83,0,0,1,3.4-1.13c1.75-.44,3-.81,3.88-1.11a8.26,8.26,0,0,0,2.1-1.09,3.58,3.58,0,0,0,1.32-1.63,7.4,7.4,0,0,0,.36-2.59q0-3.52-1.32-5.16a4.38,4.38,0,0,0-1.56-1.2,4.54,4.54,0,0,0-2-.45,3.91,3.91,0,0,0-2.2.63,3.79,3.79,0,0,0-1.45,1.75l-.75,1.75a2.19,2.19,0,0,1-2.18,1.41,2.35,2.35,0,0,1-1.71-.67,2.29,2.29,0,0,1-.7-1.71c0-1,.73-1.89,2.18-2.59a13.07,13.07,0,0,1,2.91-.89,17.45,17.45,0,0,1,3.4-.35,16.9,16.9,0,0,1,3.9.48,13.87,13.87,0,0,1,3.38,1.24,4.8,4.8,0,0,1,2.45,2.9,13.28,13.28,0,0,1,.24,3V82.69a20.14,20.14,0,0,0,.24,3.86,2.4,2.4,0,0,0,2.47,2.14,2.72,2.72,0,0,0,1.46-.33A5.26,5.26,0,0,0,470.19,87Zm-10-11.88a19.64,19.64,0,0,1-3.57,2.38,32.12,32.12,0,0,0-3,1.78,8,8,0,0,0-1.53,1.45,6.31,6.31,0,0,0-1.42,4.07,4.93,4.93,0,0,0,1.1,3.29,3.49,3.49,0,0,0,2.78,1.29,4.7,4.7,0,0,0,2.78-.92,5.6,5.6,0,0,0,2-2.45,14.49,14.49,0,0,0,.93-5.85Z"/></g></g></svg>